name GIL02_xslow2.mot
datacolumns 153
datarows 4
range 0.42499983 0.44999984
endheader

                time	           pelvis_tx	           pelvis_ty	           pelvis_tz	         pelvis_tilt	         pelvis_list	     pelvis_rotation	       hip_flexion_r	     hip_adduction_r	      hip_rotation_r	        knee_angle_r	       ankle_angle_r	    subtalar_angle_r	         mtp_angle_r	       hip_flexion_l	     hip_adduction_l	      hip_rotation_l	        knee_angle_l	       ankle_angle_l	    subtalar_angle_l	         mtp_angle_l	    lumbar_extension	      lumbar_bending	     lumbar_rotation	     ground_force_vx	     ground_force_vy	     ground_force_vz	     ground_force_px	     ground_force_py	     ground_force_pz	     ground_force_vx	     ground_force_vy	     ground_force_vz	     ground_force_px	     ground_force_py	     ground_force_pz	     ground_torque_x	     ground_torque_y	     ground_torque_z	     ground_torque_x	     ground_torque_y	     ground_torque_z	    ground_marker_px	    ground_marker_py	    ground_marker_pz	    ground_marker_px	    ground_marker_py	    ground_marker_pz	    ground_marker_px	    ground_marker_py	    ground_marker_pz	    ground_marker_px	    ground_marker_py	    ground_marker_pz	    ground_marker_px	    ground_marker_py	    ground_marker_pz	    ground_marker_px	    ground_marker_py	    ground_marker_pz	    ground_marker_px	    ground_marker_py	    ground_marker_pz	    ground_marker_px	    ground_marker_py	    ground_marker_pz	    ground_marker_px	    ground_marker_py	    ground_marker_pz	    ground_marker_px	    ground_marker_py	    ground_marker_pz	    ground_marker_px	    ground_marker_py	    ground_marker_pz	    ground_marker_px	    ground_marker_py	    ground_marker_pz	    ground_marker_px	    ground_marker_py	    ground_marker_pz	    ground_marker_px	    ground_marker_py	    ground_marker_pz	    ground_marker_px	    ground_marker_py	    ground_marker_pz	    ground_marker_px	    ground_marker_py	    ground_marker_pz	    ground_marker_px	    ground_marker_py	    ground_marker_pz	    ground_marker_px	    ground_marker_py	    ground_marker_pz	    ground_marker_px	    ground_marker_py	    ground_marker_pz	    ground_marker_px	    ground_marker_py	    ground_marker_pz	    ground_marker_px	    ground_marker_py	    ground_marker_pz	    ground_marker_px	    ground_marker_py	    ground_marker_pz	    ground_marker_px	    ground_marker_py	    ground_marker_pz	    ground_marker_px	    ground_marker_py	    ground_marker_pz	    ground_marker_px	    ground_marker_py	    ground_marker_pz	    ground_marker_px	    ground_marker_py	    ground_marker_pz	    ground_marker_px	    ground_marker_py	    ground_marker_pz	    ground_marker_px	    ground_marker_py	    ground_marker_pz	    ground_marker_px	    ground_marker_py	    ground_marker_pz	    ground_marker_px	    ground_marker_py	    ground_marker_pz	    ground_marker_px	    ground_marker_py	    ground_marker_pz	    ground_marker_px	    ground_marker_py	    ground_marker_pz	    ground_marker_px	    ground_marker_py	    ground_marker_pz	    ground_marker_px	    ground_marker_py	    ground_marker_pz	    ground_marker_px	    ground_marker_py	    ground_marker_pz	    ground_marker_px	    ground_marker_py	    ground_marker_pz	    ground_marker_px	    ground_marker_py	    ground_marker_pz	
          0.42499983	          1.50545621	          0.95501077	         -0.29343370	         -2.81361485	          6.11610460	         -1.51181173	          5.30776405	         -8.16947842	         11.63404560	        -49.09669876	        -32.18175888	          0.00000000	          0.00000000	          4.73501778	          8.60517788	          7.38519478	         -1.39164066	          0.74786949	          0.00000000	          0.00000000	         -9.05119228	         -4.77533102	         -2.97614360	          0.00000000	          0.00000000	          0.00000000	          2.15462439	          0.00000000	         -0.18457130	        -24.02075322	        642.03445281	         19.32735684	          1.47512427	          0.00000000	         -0.31739001	          0.00000000	          0.00000000	          0.00000000	          0.00000000	          2.80724170	          0.00000000	          1.41940081	          0.89379227	         -0.29882693	          1.41114581	          0.86596560	         -0.23138610	          1.41907895	          0.88044006	         -0.38090715	          1.42621934	          0.45539576	         -0.21152654	          1.43007076	          0.46388510	         -0.35782522	          1.13381529	          0.18571948	         -0.19718571	          1.42601252	          0.07089342	         -0.31106347	          1.50545621	          0.95501077	         -0.29343370	          1.49910510	          0.94342285	         -0.17373051	          1.51180744	          0.96659875	         -0.41313690	          1.31868851	          1.00186360	         -0.26216131	          1.32671201	          1.00735629	         -0.34755826	          1.43463409	          0.45850092	         -0.15371825	          1.44080830	          0.46101412	         -0.41475028	          1.43023157	          0.43571869	         -0.26136243	          1.39911580	          0.44974300	         -0.31320503	          1.12361240	          0.19871926	         -0.16075897	          1.41224349	          0.06672233	         -0.34731287	          1.15011644	          0.18546274	         -0.22520739	          1.42910838	          0.08745315	         -0.28582832	          1.32248139	          1.42616236	         -0.28816950	          1.44600081	          1.34329224	         -0.23445629	          1.45512331	          1.34373915	         -0.33901259	          1.43362343	          1.35219955	         -0.28516230	          1.50686765	          1.18435383	         -0.29136676	          1.47828102	          0.55310470	         -0.07975315	          1.57037592	          0.54211938	         -0.34929150	          1.49239039	          0.61609054	         -0.14588614	          1.50923431	          0.59715629	         -0.40072128	          1.49647522	          0.52883577	         -0.16460849	          1.48489761	          0.51232809	         -0.39757517	          1.23135996	          0.28480533	         -0.07847942	          1.44664049	          0.19490632	         -0.44514692	          1.20283020	          0.26029196	         -0.15138428	          1.42290533	          0.16506197	         -0.37303445	          1.13573778	          0.06121597	         -0.20152189	          1.55090070	          0.03969194	         -0.32270157	
          0.43333319	          1.50870538	          0.95501560	         -0.29412377	         -2.72870827	          6.05264568	         -1.58267713	          6.22960472	         -8.09522820	         11.89622784	        -50.54001617	        -32.77339172	          0.00000000	          0.00000000	          4.40224648	          8.58085155	          7.48080063	         -1.34278321	          0.92680085	          0.00000000	          0.00000000	         -9.22429752	         -4.47646332	         -2.91255903	          0.00000000	          0.00000000	          0.00000000	          2.15460815	          0.00000000	         -0.18498264	        -23.22349082	        644.85255483	         18.90437624	          1.47533997	          0.00000000	         -0.31736014	          0.00000000	          0.00000000	          0.00000000	          0.00000000	          2.74048730	          0.00000000	          1.42254329	          0.89339566	         -0.29926428	          1.41445887	          0.86592895	         -0.23203833	          1.42250836	          0.88020724	         -0.38157201	          1.43663967	          0.45558694	         -0.21174006	          1.43165660	          0.46377268	         -0.35822338	          1.14267337	          0.18877560	         -0.19708709	          1.42613888	          0.07092413	         -0.31115067	          1.50870538	          0.95501560	         -0.29412377	          1.50226212	          0.94358623	         -0.17442580	          1.51514876	          0.96644497	         -0.41382176	          1.32186604	          1.00153840	         -0.26276883	          1.32999659	          1.00705647	         -0.34799144	          1.44512534	          0.45890415	         -0.15395392	          1.44249582	          0.46082044	         -0.41512501	          1.44027853	          0.43606755	         -0.26190442	          1.40105474	          0.44940799	         -0.31419000	          1.13262951	          0.20184320	         -0.16064042	          1.41233766	          0.06677558	         -0.34739035	          1.15884626	          0.18807194	         -0.22493748	          1.42906809	          0.08742608	         -0.28628266	          1.32617855	          1.42617714	         -0.28879231	          1.44968116	          1.34257495	         -0.23497152	          1.45885587	          1.34343672	         -0.33940557	          1.43732142	          1.35194242	         -0.28564763	          1.51015306	          1.18371558	         -0.29245883	          1.48738801	          0.55376989	         -0.08002332	          1.57236373	          0.54153657	         -0.34945485	          1.50085592	          0.61683112	         -0.14597160	          1.51197183	          0.59671652	         -0.40042907	          1.50575972	          0.52940941	         -0.16499808	          1.48744166	          0.51237792	         -0.39787775	          1.24098647	          0.28684983	         -0.07848214	          1.44716251	          0.19465177	         -0.44527718	          1.21240246	          0.26251844	         -0.15099242	          1.42306411	          0.16478699	         -0.37352884	          1.14241862	          0.06399404	         -0.20154937	          1.55095863	          0.03965043	         -0.32268095	
          0.44166651	          1.51192153	          0.95500815	         -0.29481268	         -2.64202118	          5.99248505	         -1.62507343	          7.13668251	         -8.02676201	         12.14879704	        -51.94230270	        -32.81422043	          0.00000000	          0.00000000	          4.07035255	          8.57545567	          7.59337139	         -1.30135095	          1.12761831	          0.00000000	          0.00000000	         -9.51122093	         -4.56410122	         -2.97207260	          0.00000000	          0.00000000	          0.00000000	          2.15459839	          0.00000000	         -0.18546042	        -22.35818248	        647.73232677	         18.36488681	          1.47554016	          0.00000000	         -0.31735367	          0.00000000	          0.00000000	          0.00000000	          0.00000000	          2.66221777	          0.00000000	          1.42617893	          0.89346123	         -0.29937580	          1.41777515	          0.86586094	         -0.23266207	          1.42587090	          0.87997103	         -0.38220924	          1.44699657	          0.45589137	         -0.21195816	          1.43322110	          0.46365818	         -0.35853723	          1.15157259	          0.19173069	         -0.19704144	          1.42626226	          0.07090666	         -0.31122372	          1.51192153	          0.95500815	         -0.29481268	          1.50544286	          0.94371641	         -0.17513584	          1.51840019	          0.96629989	         -0.41448951	          1.32500839	          1.00120473	         -0.26331431	          1.33323467	          1.00671947	         -0.34833992	          1.45557046	          0.45941946	         -0.15419751	          1.44415331	          0.46061698	         -0.41541636	          1.44913888	          0.43695199	         -0.26293486	          1.40341473	          0.44854671	         -0.31512338	          1.14167964	          0.20485373	         -0.16057341	          1.41243041	          0.06678706	         -0.34745508	          1.16746795	          0.19101030	         -0.22480161	          1.42875993	          0.08720747	         -0.28644598	          1.33017385	          1.42623365	         -0.28939027	          1.45307803	          1.34231341	         -0.23538846	          1.46231568	          1.34286535	         -0.33970314	          1.44094622	          1.35168171	         -0.28612196	          1.51284111	          1.18302727	         -0.29237249	          1.49650979	          0.55456519	         -0.08027294	          1.57435167	          0.54099184	         -0.34956363	          1.50852346	          0.61787742	         -0.14605549	          1.51417375	          0.59633058	         -0.40043923	          1.51441967	          0.53001887	         -0.16601107	          1.48996520	          0.51220471	         -0.39827803	          1.25069177	          0.28891954	         -0.07850517	          1.44767773	          0.19435638	         -0.44535932	          1.22217107	          0.26462135	         -0.15094417	          1.42344975	          0.16450664	         -0.37355804	          1.15027475	          0.06679139	         -0.20145959	          1.55100083	          0.03961845	         -0.32267168	
          0.44999984	          1.51513219	          0.95499945	         -0.29549342	         -2.55153561	          5.93287992	         -1.64118445	          8.02114105	         -7.96079302	         12.39039326	        -53.28921509	        -32.26123047	          0.00000000	          0.00000000	          3.73349953	          8.58393574	          7.71506453	         -1.26681459	          1.35695434	          0.00000000	          0.00000000	         -9.65157795	         -4.60680103	         -3.20858955	          0.00000000	          0.00000000	          0.00000000	          2.15462500	          0.00000000	         -0.18600844	        -21.48881445	        650.31032320	         17.76531479	          1.47568958	          0.00000000	         -0.31734314	          0.00000000	          0.00000000	          0.00000000	          0.00000000	          2.57873779	          0.00000000	          1.42921841	          0.89300638	         -0.29944259	          1.42112362	          0.86577350	         -0.23324753	          1.42919886	          0.87973493	         -0.38280976	          1.45727324	          0.45632085	         -0.21218461	          1.43476844	          0.46356070	         -0.35877118	          1.16050673	          0.19452976	         -0.19704285	          1.42636454	          0.07084183	         -0.31128040	          1.51513219	          0.95499945	         -0.29549342	          1.50867283	          0.94383150	         -0.17585656	          1.52159166	          0.96616739	         -0.41513026	          1.32813144	          1.00087357	         -0.26380864	          1.33641875	          1.00636256	         -0.34865671	          1.46595037	          0.46005678	         -0.15445247	          1.44577777	          0.46042380	         -0.41563022	          1.45990062	          0.43704599	         -0.26337287	          1.40472996	          0.44858986	         -0.31549609	          1.15074718	          0.20770350	         -0.16055721	          1.41251266	          0.06675730	         -0.34750804	          1.17640281	          0.19429670	         -0.22467960	          1.42891097	          0.08697490	         -0.28631133	          1.33398211	          1.42595696	         -0.28997076	          1.45645237	          1.34218609	         -0.23559138	          1.46609986	          1.34246600	         -0.34016812	          1.44449890	          1.35144615	         -0.28658167	          1.51629293	          1.18270266	         -0.29210010	          1.50562572	          0.55550367	         -0.08051692	          1.57634044	          0.54046100	         -0.34963715	          1.51651299	          0.61904603	         -0.14657582	          1.51629567	          0.59587818	         -0.40065596	          1.52384400	          0.53105718	         -0.16660690	          1.49168193	          0.51183015	         -0.39853108	          1.26045144	          0.29101846	         -0.07856406	          1.44820595	          0.19403182	         -0.44540241	          1.23182833	          0.26681843	         -0.15094388	          1.42415011	          0.16446854	         -0.37329471	          1.15941429	          0.06954012	         -0.20120357	          1.55102217	          0.03960123	         -0.32267448	
